<svg xmlns="http://www.w3.org/2000/svg" width="192" height="192" viewBox="0 0 192 192" fill="none">
  <rect width="192" height="192" rx="40" fill="#1C1917"/>
  <path d="M56 48C56 44.6863 58.6863 42 62 42H96C99.3137 42 102 44.6863 102 48V144C102 147.314 99.3137 150 96 150H62C58.6863 150 56 147.314 56 144V48Z" fill="#6B7D63" opacity="0.8"/>
  <path d="M90 48C90 44.6863 92.6863 42 96 42H130C133.314 42 136 44.6863 136 48V144C136 147.314 133.314 150 130 150H96C92.6863 150 90 147.314 90 144V48Z" fill="#8E9D87" opacity="0.9"/>
  <rect x="66" y="60" width="24" height="3" rx="1.5" fill="white" opacity="0.6"/>
  <rect x="66" y="70" width="18" height="3" rx="1.5" fill="white" opacity="0.4"/>
  <rect x="100" y="60" width="24" height="3" rx="1.5" fill="white" opacity="0.6"/>
  <rect x="100" y="70" width="18" height="3" rx="1.5" fill="white" opacity="0.4"/>
</svg>
